<mxfile host="Electron" modified="2024-06-12T00:20:10.708Z" agent="Mozilla/5.0 (Windows NT 10.0; Win64; x64) AppleWebKit/537.36 (KHTML, like Gecko) draw.io/22.1.18 Chrome/120.0.6099.199 Electron/28.1.2 Safari/537.36" etag="E-2sY_JDZMMoM915iT01" version="22.1.18" type="device">
  <diagram name="第 1 页" id="-jOLA1lxsZVDU0J1Txm_">
    <mxGraphModel dx="1221" dy="717" grid="1" gridSize="10" guides="1" tooltips="1" connect="1" arrows="1" fold="1" page="1" pageScale="1" pageWidth="20000" pageHeight="20000" math="0" shadow="0">
      <root>
        <mxCell id="0" />
        <mxCell id="1" parent="0" />
        <mxCell id="dGecKaMKRmX6aEZWL2kQ-22" value="" style="rounded=0;whiteSpace=wrap;html=1;sketch=1;hachureGap=4;jiggle=2;curveFitting=1;fontFamily=Architects Daughter;fontSource=https%3A%2F%2Ffonts.googleapis.com%2Fcss%3Ffamily%3DArchitects%2BDaughter;fontSize=20;" parent="1" vertex="1">
          <mxGeometry x="710" y="670" width="540" height="270" as="geometry" />
        </mxCell>
        <mxCell id="dGecKaMKRmX6aEZWL2kQ-1" value="&lt;font color=&quot;#ffffff&quot; face=&quot;Times New Roman&quot;&gt;user1&lt;/font&gt;" style="shape=actor;whiteSpace=wrap;html=1;sketch=1;hachureGap=4;jiggle=2;curveFitting=1;fontFamily=Architects Daughter;fontSource=https%3A%2F%2Ffonts.googleapis.com%2Fcss%3Ffamily%3DArchitects%2BDaughter;fontSize=20;" parent="1" vertex="1">
          <mxGeometry x="230" y="430" width="40" height="70" as="geometry" />
        </mxCell>
        <mxCell id="dGecKaMKRmX6aEZWL2kQ-2" value="&lt;font face=&quot;Times New Roman&quot;&gt;user2&lt;/font&gt;" style="shape=actor;whiteSpace=wrap;html=1;sketch=1;hachureGap=4;jiggle=2;curveFitting=1;fontFamily=Architects Daughter;fontSource=https%3A%2F%2Ffonts.googleapis.com%2Fcss%3Ffamily%3DArchitects%2BDaughter;fontSize=20;" parent="1" vertex="1">
          <mxGeometry x="230" y="540" width="40" height="70" as="geometry" />
        </mxCell>
        <mxCell id="dGecKaMKRmX6aEZWL2kQ-3" value="&lt;font face=&quot;Times New Roman&quot;&gt;user3&lt;/font&gt;" style="shape=actor;whiteSpace=wrap;html=1;sketch=1;hachureGap=4;jiggle=2;curveFitting=1;fontFamily=Architects Daughter;fontSource=https%3A%2F%2Ffonts.googleapis.com%2Fcss%3Ffamily%3DArchitects%2BDaughter;fontSize=20;" parent="1" vertex="1">
          <mxGeometry x="230" y="650" width="40" height="70" as="geometry" />
        </mxCell>
        <mxCell id="dGecKaMKRmX6aEZWL2kQ-4" value="" style="shape=tapeData;whiteSpace=wrap;html=1;perimeter=ellipsePerimeter;hachureGap=4;fontFamily=Architects Daughter;fontSource=https%3A%2F%2Ffonts.googleapis.com%2Fcss%3Ffamily%3DArchitects%2BDaughter;fontSize=20;" parent="1" vertex="1">
          <mxGeometry x="500" y="160" width="350" height="450" as="geometry" />
        </mxCell>
        <mxCell id="dGecKaMKRmX6aEZWL2kQ-6" value="&lt;font data-font-src=&quot;https://fonts.googleapis.com/css?family=Architects+Daughter&quot; face=&quot;Architects Daughter&quot;&gt;Server APP&lt;/font&gt;" style="text;html=1;strokeColor=none;fillColor=none;align=center;verticalAlign=middle;whiteSpace=wrap;rounded=0;fontSize=20;fontFamily=Architects Daughter;" parent="1" vertex="1">
          <mxGeometry x="615" y="240" width="130" height="40" as="geometry" />
        </mxCell>
        <mxCell id="dGecKaMKRmX6aEZWL2kQ-7" value="MySQL Cilent" style="text;html=1;strokeColor=none;fillColor=none;align=center;verticalAlign=middle;whiteSpace=wrap;rounded=0;fontSize=20;fontFamily=Architects Daughter;" parent="1" vertex="1">
          <mxGeometry x="605" y="300" width="140" height="30" as="geometry" />
        </mxCell>
        <mxCell id="dGecKaMKRmX6aEZWL2kQ-10" value="" style="endArrow=none;html=1;rounded=0;sketch=1;hachureGap=4;jiggle=2;curveFitting=1;fontFamily=Architects Daughter;fontSource=https%3A%2F%2Ffonts.googleapis.com%2Fcss%3Ffamily%3DArchitects%2BDaughter;fontSize=16;exitX=1;exitY=0.75;exitDx=0;exitDy=0;entryX=0.041;entryY=0.308;entryDx=0;entryDy=0;entryPerimeter=0;" parent="1" source="dGecKaMKRmX6aEZWL2kQ-1" target="dGecKaMKRmX6aEZWL2kQ-4" edge="1">
          <mxGeometry width="50" height="50" relative="1" as="geometry">
            <mxPoint x="600" y="500" as="sourcePoint" />
            <mxPoint x="650" y="450" as="targetPoint" />
          </mxGeometry>
        </mxCell>
        <mxCell id="dGecKaMKRmX6aEZWL2kQ-11" value="" style="endArrow=none;html=1;rounded=0;sketch=1;hachureGap=4;jiggle=2;curveFitting=1;fontFamily=Architects Daughter;fontSource=https%3A%2F%2Ffonts.googleapis.com%2Fcss%3Ffamily%3DArchitects%2BDaughter;fontSize=16;exitX=1;exitY=0.75;exitDx=0;exitDy=0;entryX=0.024;entryY=0.36;entryDx=0;entryDy=0;entryPerimeter=0;" parent="1" target="dGecKaMKRmX6aEZWL2kQ-4" edge="1">
          <mxGeometry width="50" height="50" relative="1" as="geometry">
            <mxPoint x="260" y="579" as="sourcePoint" />
            <mxPoint x="523" y="370" as="targetPoint" />
          </mxGeometry>
        </mxCell>
        <mxCell id="dGecKaMKRmX6aEZWL2kQ-12" value="" style="endArrow=none;html=1;rounded=0;sketch=1;hachureGap=4;jiggle=2;curveFitting=1;fontFamily=Architects Daughter;fontSource=https%3A%2F%2Ffonts.googleapis.com%2Fcss%3Ffamily%3DArchitects%2BDaughter;fontSize=16;exitX=0.9;exitY=0.5;exitDx=0;exitDy=0;entryX=0.016;entryY=0.389;entryDx=0;entryDy=0;entryPerimeter=0;exitPerimeter=0;" parent="1" source="dGecKaMKRmX6aEZWL2kQ-3" target="dGecKaMKRmX6aEZWL2kQ-4" edge="1">
          <mxGeometry width="50" height="50" relative="1" as="geometry">
            <mxPoint x="300" y="599" as="sourcePoint" />
            <mxPoint x="563" y="390" as="targetPoint" />
          </mxGeometry>
        </mxCell>
        <mxCell id="dGecKaMKRmX6aEZWL2kQ-13" value="Request" style="text;html=1;align=center;verticalAlign=middle;resizable=0;points=[];autosize=1;strokeColor=none;fillColor=none;fontSize=20;fontFamily=Architects Daughter;rotation=0;" parent="1" vertex="1">
          <mxGeometry x="290" y="350" width="100" height="40" as="geometry" />
        </mxCell>
        <mxCell id="dGecKaMKRmX6aEZWL2kQ-15" value="Request" style="text;html=1;align=center;verticalAlign=middle;resizable=0;points=[];autosize=1;strokeColor=none;fillColor=none;fontSize=20;fontFamily=Architects Daughter;rotation=0;" parent="1" vertex="1">
          <mxGeometry x="430" y="470" width="100" height="40" as="geometry" />
        </mxCell>
        <mxCell id="dGecKaMKRmX6aEZWL2kQ-16" value="Request" style="text;html=1;align=center;verticalAlign=middle;resizable=0;points=[];autosize=1;strokeColor=none;fillColor=none;fontSize=20;fontFamily=Architects Daughter;rotation=0;" parent="1" vertex="1">
          <mxGeometry x="280" y="490" width="100" height="40" as="geometry" />
        </mxCell>
        <mxCell id="dGecKaMKRmX6aEZWL2kQ-41" style="edgeStyle=orthogonalEdgeStyle;rounded=0;sketch=1;hachureGap=4;jiggle=2;curveFitting=1;orthogonalLoop=1;jettySize=auto;html=1;fontFamily=Architects Daughter;fontSource=https%3A%2F%2Ffonts.googleapis.com%2Fcss%3Ffamily%3DArchitects%2BDaughter;fontSize=16;" parent="1" source="dGecKaMKRmX6aEZWL2kQ-18" target="dGecKaMKRmX6aEZWL2kQ-27" edge="1">
          <mxGeometry relative="1" as="geometry" />
        </mxCell>
        <mxCell id="dGecKaMKRmX6aEZWL2kQ-18" value="多线程" style="text;html=1;align=center;verticalAlign=middle;resizable=0;points=[];autosize=1;strokeColor=none;fillColor=none;fontSize=20;fontFamily=Architects Daughter;" parent="1" vertex="1">
          <mxGeometry x="745" y="150" width="80" height="40" as="geometry" />
        </mxCell>
        <mxCell id="dGecKaMKRmX6aEZWL2kQ-20" value="" style="shape=flexArrow;endArrow=classic;html=1;rounded=0;sketch=1;hachureGap=4;jiggle=2;curveFitting=1;fontFamily=Architects Daughter;fontSource=https%3A%2F%2Ffonts.googleapis.com%2Fcss%3Ffamily%3DArchitects%2BDaughter;fontSize=16;exitX=0.914;exitY=0.209;exitDx=0;exitDy=0;exitPerimeter=0;" parent="1" source="dGecKaMKRmX6aEZWL2kQ-4" edge="1">
          <mxGeometry width="50" height="50" relative="1" as="geometry">
            <mxPoint x="940" y="300" as="sourcePoint" />
            <mxPoint x="1060" y="210" as="targetPoint" />
          </mxGeometry>
        </mxCell>
        <mxCell id="dGecKaMKRmX6aEZWL2kQ-21" value="MySQL Server" style="rounded=0;whiteSpace=wrap;html=1;hachureGap=4;fontFamily=Architects Daughter;fontSource=https%3A%2F%2Ffonts.googleapis.com%2Fcss%3Ffamily%3DArchitects%2BDaughter;fontSize=20;" parent="1" vertex="1">
          <mxGeometry x="1060" y="157.5" width="140" height="105" as="geometry" />
        </mxCell>
        <mxCell id="dGecKaMKRmX6aEZWL2kQ-25" value="&lt;font style=&quot;font-size: 14px;&quot;&gt;&lt;font style=&quot;&quot;&gt;Connection、&lt;/font&gt;Connection、Connection...&lt;/font&gt;" style="rounded=0;whiteSpace=wrap;html=1;sketch=1;hachureGap=4;jiggle=2;curveFitting=1;fontFamily=Architects Daughter;fontSource=https%3A%2F%2Ffonts.googleapis.com%2Fcss%3Ffamily%3DArchitects%2BDaughter;fontSize=20;" parent="1" vertex="1">
          <mxGeometry x="820" y="760" width="380" height="50" as="geometry" />
        </mxCell>
        <mxCell id="dGecKaMKRmX6aEZWL2kQ-26" value="initSize初始连接量" style="text;html=1;strokeColor=none;fillColor=none;align=center;verticalAlign=middle;whiteSpace=wrap;rounded=0;fontSize=20;fontFamily=Architects Daughter;" parent="1" vertex="1">
          <mxGeometry x="890" y="720" width="220" height="30" as="geometry" />
        </mxCell>
        <mxCell id="dGecKaMKRmX6aEZWL2kQ-27" value="queue" style="text;html=1;strokeColor=none;fillColor=none;align=center;verticalAlign=middle;whiteSpace=wrap;rounded=0;fontSize=20;fontFamily=Architects Daughter;" parent="1" vertex="1">
          <mxGeometry x="755" y="770" width="60" height="30" as="geometry" />
        </mxCell>
        <mxCell id="dGecKaMKRmX6aEZWL2kQ-28" value="&lt;font style=&quot;font-size: 18px;&quot;&gt;生产者线程&lt;/font&gt;" style="rounded=0;whiteSpace=wrap;html=1;sketch=1;hachureGap=4;jiggle=2;curveFitting=1;fontFamily=Architects Daughter;fontSource=https%3A%2F%2Ffonts.googleapis.com%2Fcss%3Ffamily%3DArchitects%2BDaughter;fontSize=20;" parent="1" vertex="1">
          <mxGeometry x="725" y="850" width="120" height="60" as="geometry" />
        </mxCell>
        <mxCell id="dGecKaMKRmX6aEZWL2kQ-29" style="edgeStyle=orthogonalEdgeStyle;rounded=0;sketch=1;hachureGap=4;jiggle=2;curveFitting=1;orthogonalLoop=1;jettySize=auto;html=1;entryX=0.124;entryY=1.093;entryDx=0;entryDy=0;entryPerimeter=0;fontFamily=Architects Daughter;fontSource=https%3A%2F%2Ffonts.googleapis.com%2Fcss%3Ffamily%3DArchitects%2BDaughter;fontSize=16;" parent="1" source="dGecKaMKRmX6aEZWL2kQ-28" target="dGecKaMKRmX6aEZWL2kQ-25" edge="1">
          <mxGeometry relative="1" as="geometry" />
        </mxCell>
        <mxCell id="dGecKaMKRmX6aEZWL2kQ-30" value="&lt;font style=&quot;font-size: 14px;&quot;&gt;生产连接&lt;/font&gt;" style="text;html=1;strokeColor=none;fillColor=none;align=center;verticalAlign=middle;whiteSpace=wrap;rounded=0;fontSize=20;fontFamily=Architects Daughter;" parent="1" vertex="1">
          <mxGeometry x="845" y="840" width="60" height="30" as="geometry" />
        </mxCell>
        <mxCell id="dGecKaMKRmX6aEZWL2kQ-31" value="&lt;font style=&quot;font-size: 18px;&quot;&gt;maxSize&lt;/font&gt;" style="text;html=1;strokeColor=none;fillColor=none;align=center;verticalAlign=middle;whiteSpace=wrap;rounded=0;fontSize=20;fontFamily=Architects Daughter;" parent="1" vertex="1">
          <mxGeometry x="850" y="870" width="60" height="30" as="geometry" />
        </mxCell>
        <mxCell id="dGecKaMKRmX6aEZWL2kQ-32" value="&lt;font style=&quot;font-size: 14px;&quot;&gt;线程安全的懒汉式单例模式&lt;/font&gt;" style="rounded=0;whiteSpace=wrap;html=1;sketch=1;hachureGap=4;jiggle=2;curveFitting=1;fontFamily=Architects Daughter;fontSource=https%3A%2F%2Ffonts.googleapis.com%2Fcss%3Ffamily%3DArchitects%2BDaughter;fontSize=20;" parent="1" vertex="1">
          <mxGeometry x="940" y="855" width="120" height="60" as="geometry" />
        </mxCell>
        <mxCell id="dGecKaMKRmX6aEZWL2kQ-33" value="&lt;font style=&quot;font-size: 14px;&quot;&gt;连接池队列 - 线程安全 - mutex&lt;/font&gt;" style="text;html=1;strokeColor=none;fillColor=none;align=center;verticalAlign=middle;whiteSpace=wrap;rounded=0;fontSize=20;fontFamily=Architects Daughter;" parent="1" vertex="1">
          <mxGeometry x="790" y="810" width="450" height="30" as="geometry" />
        </mxCell>
        <mxCell id="dGecKaMKRmX6aEZWL2kQ-34" value="&lt;font style=&quot;font-size: 14px;&quot;&gt;lock_guard&lt;/font&gt;" style="text;html=1;align=center;verticalAlign=middle;resizable=0;points=[];autosize=1;strokeColor=none;fillColor=none;fontSize=20;fontFamily=Architects Daughter;" parent="1" vertex="1">
          <mxGeometry x="1060" y="820" width="100" height="40" as="geometry" />
        </mxCell>
        <mxCell id="dGecKaMKRmX6aEZWL2kQ-35" value="&lt;font style=&quot;font-size: 14px;&quot;&gt;unique_lock&lt;/font&gt;" style="text;html=1;strokeColor=none;fillColor=none;align=center;verticalAlign=middle;whiteSpace=wrap;rounded=0;fontSize=20;fontFamily=Architects Daughter;" parent="1" vertex="1">
          <mxGeometry x="1080" y="840" width="60" height="30" as="geometry" />
        </mxCell>
        <mxCell id="dGecKaMKRmX6aEZWL2kQ-36" value="&lt;font style=&quot;font-size: 14px;&quot;&gt;定时线程，清理连接队列多于的空闲连接&lt;/font&gt;" style="rounded=0;whiteSpace=wrap;html=1;sketch=1;hachureGap=4;jiggle=2;curveFitting=1;fontFamily=Architects Daughter;fontSource=https%3A%2F%2Ffonts.googleapis.com%2Fcss%3Ffamily%3DArchitects%2BDaughter;fontSize=20;" parent="1" vertex="1">
          <mxGeometry x="1090" y="900" width="130" height="60" as="geometry" />
        </mxCell>
        <mxCell id="dGecKaMKRmX6aEZWL2kQ-37" value="&lt;font style=&quot;font-size: 18px;&quot;&gt;100ms&lt;br&gt;ConnectionTimeOut&lt;/font&gt;" style="text;html=1;align=center;verticalAlign=middle;resizable=0;points=[];autosize=1;strokeColor=none;fillColor=none;fontSize=20;fontFamily=Architects Daughter;" parent="1" vertex="1">
          <mxGeometry x="415" y="775" width="180" height="60" as="geometry" />
        </mxCell>
        <mxCell id="dGecKaMKRmX6aEZWL2kQ-39" value="&lt;font style=&quot;font-size: 18px;&quot;&gt;getConnection消费线程&lt;/font&gt;" style="text;html=1;strokeColor=none;fillColor=none;align=center;verticalAlign=middle;whiteSpace=wrap;rounded=0;fontSize=20;fontFamily=Architects Daughter;" parent="1" vertex="1">
          <mxGeometry x="775" y="400" width="210" height="30" as="geometry" />
        </mxCell>
        <mxCell id="dGecKaMKRmX6aEZWL2kQ-40" value="" style="shape=flexArrow;endArrow=classic;html=1;rounded=0;sketch=1;hachureGap=4;jiggle=2;curveFitting=1;fontFamily=Architects Daughter;fontSource=https%3A%2F%2Ffonts.googleapis.com%2Fcss%3Ffamily%3DArchitects%2BDaughter;fontSize=16;exitX=0.327;exitY=1.089;exitDx=0;exitDy=0;exitPerimeter=0;entryX=0.108;entryY=0.04;entryDx=0;entryDy=0;entryPerimeter=0;" parent="1" source="dGecKaMKRmX6aEZWL2kQ-39" target="dGecKaMKRmX6aEZWL2kQ-25" edge="1">
          <mxGeometry width="50" height="50" relative="1" as="geometry">
            <mxPoint x="890" y="510" as="sourcePoint" />
            <mxPoint x="920" y="480" as="targetPoint" />
          </mxGeometry>
        </mxCell>
        <mxCell id="dGecKaMKRmX6aEZWL2kQ-42" value="&lt;font style=&quot;font-size: 18px;&quot;&gt;epoll + 多线程&lt;/font&gt;" style="text;html=1;strokeColor=none;fillColor=none;align=center;verticalAlign=middle;whiteSpace=wrap;rounded=0;fontSize=20;fontFamily=Architects Daughter;" parent="1" vertex="1">
          <mxGeometry x="430" y="550" width="130" height="30" as="geometry" />
        </mxCell>
        <mxCell id="dGecKaMKRmX6aEZWL2kQ-43" value="&lt;font style=&quot;font-size: 18px;&quot;&gt;libevent&lt;/font&gt;" style="text;html=1;align=center;verticalAlign=middle;resizable=0;points=[];autosize=1;strokeColor=none;fillColor=none;fontSize=20;fontFamily=Architects Daughter;" parent="1" vertex="1">
          <mxGeometry x="460" y="583" width="80" height="40" as="geometry" />
        </mxCell>
        <mxCell id="dGecKaMKRmX6aEZWL2kQ-44" value="&lt;font style=&quot;font-size: 18px;&quot;&gt;muduo&lt;/font&gt;" style="text;html=1;align=center;verticalAlign=middle;resizable=0;points=[];autosize=1;strokeColor=none;fillColor=none;fontSize=20;fontFamily=Architects Daughter;" parent="1" vertex="1">
          <mxGeometry x="460" y="610" width="80" height="40" as="geometry" />
        </mxCell>
        <mxCell id="dGecKaMKRmX6aEZWL2kQ-45" style="edgeStyle=orthogonalEdgeStyle;rounded=0;sketch=1;hachureGap=4;jiggle=2;curveFitting=1;orthogonalLoop=1;jettySize=auto;html=1;entryX=0.548;entryY=0.983;entryDx=0;entryDy=0;entryPerimeter=0;fontFamily=Architects Daughter;fontSource=https%3A%2F%2Ffonts.googleapis.com%2Fcss%3Ffamily%3DArchitects%2BDaughter;fontSize=16;" parent="1" source="dGecKaMKRmX6aEZWL2kQ-36" target="dGecKaMKRmX6aEZWL2kQ-37" edge="1">
          <mxGeometry relative="1" as="geometry" />
        </mxCell>
        <mxCell id="-8Lac4QVARYEa2xtUbvo-1" value="&lt;b&gt;&lt;font color=&quot;#009900&quot;&gt;关键技术点:&lt;/font&gt;&lt;/b&gt;" style="text;html=1;strokeColor=none;fillColor=none;align=center;verticalAlign=middle;whiteSpace=wrap;rounded=0;fontSize=20;fontFamily=Architects Daughter;" vertex="1" parent="1">
          <mxGeometry x="140" y="1020" width="150" height="50" as="geometry" />
        </mxCell>
        <mxCell id="-8Lac4QVARYEa2xtUbvo-2" value="MySQL 数据库编程、 单例模式、 queue队列容器、C++ 11 多线程编程" style="text;html=1;align=center;verticalAlign=middle;resizable=0;points=[];autosize=1;strokeColor=none;fillColor=none;fontSize=20;fontFamily=Architects Daughter;" vertex="1" parent="1">
          <mxGeometry x="270" y="1070" width="640" height="40" as="geometry" />
        </mxCell>
        <mxCell id="-8Lac4QVARYEa2xtUbvo-3" value="线程互斥、线程同步通信和 unique_lock、基于 CAS 的原子整型" style="text;html=1;align=center;verticalAlign=middle;resizable=0;points=[];autosize=1;strokeColor=none;fillColor=none;fontSize=20;fontFamily=Architects Daughter;" vertex="1" parent="1">
          <mxGeometry x="270" y="1123" width="590" height="40" as="geometry" />
        </mxCell>
        <mxCell id="-8Lac4QVARYEa2xtUbvo-4" value="智能指针 shared_ptr、 lambda 表达式、 生产者消费者线程模型" style="text;html=1;align=center;verticalAlign=middle;resizable=0;points=[];autosize=1;strokeColor=none;fillColor=none;fontSize=20;fontFamily=Architects Daughter;" vertex="1" parent="1">
          <mxGeometry x="270" y="1170" width="600" height="40" as="geometry" />
        </mxCell>
        <mxCell id="-8Lac4QVARYEa2xtUbvo-5" value="&lt;b&gt;&lt;font color=&quot;#009900&quot;&gt;目的:&lt;/font&gt;&lt;/b&gt;" style="text;html=1;strokeColor=none;fillColor=none;align=center;verticalAlign=middle;whiteSpace=wrap;rounded=0;fontSize=20;fontFamily=Architects Daughter;" vertex="1" parent="1">
          <mxGeometry x="130" y="1280" width="150" height="50" as="geometry" />
        </mxCell>
        <mxCell id="-8Lac4QVARYEa2xtUbvo-6" value="为了提高 MySQL 数据库(基于 C/S设计)的访问瓶颈， 除了在服务器端增加缓存服务器缓存常用的数据之外(redis)" style="text;html=1;align=center;verticalAlign=middle;resizable=0;points=[];autosize=1;strokeColor=none;fillColor=none;fontSize=20;fontFamily=Architects Daughter;" vertex="1" parent="1">
          <mxGeometry x="190" y="1320" width="1030" height="40" as="geometry" />
        </mxCell>
        <mxCell id="-8Lac4QVARYEa2xtUbvo-7" value="还可以增加连接池， 来提高 MySQL Server 的访问效率， 在高并发的情况下,大量的&lt;font color=&quot;#7ea6e0&quot;&gt;三次握手、MySQL Server &lt;br&gt;&lt;br&gt;关闭连接回收资源和TCP四次挥手&lt;/font&gt;所耗费的性能时间也是很明显的，增加连接池就是为了减少这部分的性能损耗。" style="text;html=1;align=center;verticalAlign=middle;resizable=0;points=[];autosize=1;strokeColor=none;fillColor=none;fontSize=20;fontFamily=Architects Daughter;" vertex="1" parent="1">
          <mxGeometry x="190" y="1370" width="1030" height="90" as="geometry" />
        </mxCell>
        <mxCell id="-8Lac4QVARYEa2xtUbvo-8" value="本项目就是为了在 C/C++ 项目中，提高 MySQL Server 的访问效率, 实现基于 C++代码的数据库连接。" style="text;html=1;align=center;verticalAlign=middle;resizable=0;points=[];autosize=1;strokeColor=none;fillColor=none;fontSize=20;fontFamily=Architects Daughter;" vertex="1" parent="1">
          <mxGeometry x="200" y="1460" width="950" height="40" as="geometry" />
        </mxCell>
      </root>
    </mxGraphModel>
  </diagram>
</mxfile>
